<svg id="SvgjsSvg1001" width="288" height="288" xmlns="http://www.w3.org/2000/svg" version="1.1" xmlns:xlink="http://www.w3.org/1999/xlink" xmlns:svgjs="http://svgjs.com/svgjs"><defs id="SvgjsDefs1002"></defs><g id="SvgjsG1008"><svg xmlns="http://www.w3.org/2000/svg" width="288" height="288" viewBox="-10 0 1918 1536"><rect width="364" height="517" x="1007" y="190" fill="#cf9508" class="colorred svgShape"></rect><rect width="363.458" height="519" x="1007.542" y="738" fill="#51c4d3" class="color00f svgShape"></rect><rect width="448.5" height="475" x="1371" y="175" fill="#126e82" class="colorgreen svgShape"></rect><rect width="448.5" height="478" x="1371" y="726" fill="#825f0c" class="colorff0 svgShape"></rect><path d="m 58,121 v 59 l -68,28 v -58 z" fill="#000000" class="color000 svgShape"></path><path fill="#cf9508" d="M51 312v53l-55 25v-52zM51 504v52l-55 25v-52z" class="colorred svgShape"></path><path d="m 58,693 v 59 l -68,28 v -57 z" fill="#000000" class="color000 svgShape"></path><path fill="#51c4d3" d="M51 892v51l-55 25v-52zM51 1086v52l-55 25v-51z" class="color00f svgShape"></path><path d="M58 1273v60l-68 28v-57zM230 154v69l-92 35v-68z" fill="#000000" class="color000 svgShape"></path><path fill="#cf9508" d="M225 354v63l-74 29v-63zM225 547v62l-74 29v-64z" class="colorred svgShape"></path><path d="m 230,733 v 68 l -92,36 v -68 z" fill="#000000" class="color000 svgShape"></path><path fill="#51c4d3" d="M225 933v62l-74 30v-64zM225 1128v62l-74 30v-63z" class="color00f svgShape"></path><path d="M230 1315v68l-92 38v-68zM402 197v82l-119 47v-81z" fill="#000000" class="color000 svgShape"></path><path fill="#cf9508" d="M396 398v73l-100 39v-71zM396 591v72l-100 40v-72z" class="colorred svgShape"></path><path d="m 402,776 v 82 l -119,47 v -81 z" fill="#000000" class="color000 svgShape"></path><path fill="#51c4d3" d="M396 977v72l-100 41v-72zM396 1164v74l-100 40v-72z" class="color00f svgShape"></path><path d="M402 1351v82l-119 48v-82zM590 192V300L441 360V253z" fill="#000000" class="color000 svgShape"></path><path fill="#cf9508" d="M582 393v99l-125 51v-99zM582 586v98l-125 51v-99z" class="colorred svgShape"></path><path d="M 590,772 V 880 L 441,939 V 831 Z" fill="#000000" class="color000 svgShape"></path><path fill="#51c4d3" d="M582 973v99l-125 50v-99zM582 1160v99l-125 50v-98z" class="color00f svgShape"></path><path d="M590 1346v108l-149 60v-107zM787 174V315L621 383V242z" fill="#000000" class="color000 svgShape"></path><path fill="#cf9508" d="M779 386V504L637 561V442zM779 570V689L637 745V627z" class="colorred svgShape"></path><path d="M 787,753 V 894 L 621,961 V 820 Z" fill="#000000" class="color000 svgShape"></path><path fill="#51c4d3" d="M779 964v120l-142 55v-118zM779 1152v119l-142 57v-119z" class="color00f svgShape"></path><path d="M787 1328v141l-166 67v-141zM988 103V296L811 370V190c61.33333-35.3333 120.3333-64.3333 177-87zM988 316V483L811 558V390zM988 504V673L811 748V579zM988 694V861L811 936V768zM988 882v172l-177 76V957zM988 1075v168l-177 77v-170zM988 1264v180c-69.3333 26.6667-128.33333 52.3333-177 77v-181z" fill="#000000" class="color000 svgShape"></path><path d="m 1474,0 c -149.3333,0 -301.6667,31.6667 -457,95 v 190 c 106,-44.6667 208,-76.3333 306,-95 v 427 c -108.6667,16 -210.6667,46 -306,90 v 129 c 110,-53.33333 212,-86 306,-98 v 440 c -111.3333,16 -213.3333,42.3333 -306,79 v 180 c 174.6667,-58.6667 332.6667,-88 474,-88 170.6667,0 313,37.3333 427,112 V 110 C 1782.6667,36.6667 1634.6667,0 1474,0 Z m 1,175 c 103.3333,0 192,18.6667 266,56 v 419 c -86,-28 -173.3333,-42 -262,-42 l -40,1 V 177 c 12,-1.3333 24,-2 36,-2 z m 2,551 c 96.6667,0 184.6667,17.33333 264,52 v 426 c -78,-24 -165.3333,-36 -262,-36 h -40 V 728 c 13.3333,-1.33333 26,-2 38,-2 z" transform="translate(-10)" fill="#000000" class="color000 svgShape"></path></svg></g></svg>